<svg xmlns="http://www.w3.org/2000/svg" viewBox="0 0 64 64" width="64" height="64">
  <defs>
    <linearGradient id="cfbg" x1="0" y1="0" x2="0" y2="64" gradientUnits="userSpaceOnUse">
      <stop offset="0" stop-color="#13807d"/>
      <stop offset="1" stop-color="#0a4c4d"/>
    </linearGradient>
    <linearGradient id="cfsheen" x1="0" y1="0" x2="0" y2="30" gradientUnits="userSpaceOnUse">
      <stop offset="0" stop-color="#ffffff" stop-opacity="0.22"/>
      <stop offset="1" stop-color="#ffffff" stop-opacity="0"/>
    </linearGradient>
  </defs>
  <rect width="64" height="64" rx="15" fill="url(#cfbg)"/>
  <path d="M0 15A15 15 0 0 1 15 0h34a15 15 0 0 1 15 15v15H0z" fill="url(#cfsheen)"/>
  <!-- motion lines -->
  <g stroke="#ffffff" stroke-opacity="0.4" stroke-width="2.4" stroke-linecap="round">
    <line x1="6"  y1="25" x2="14" y2="25"/>
    <line x1="4"  y1="31" x2="11" y2="31"/>
  </g>
  <!-- cargo body + cab -->
  <path d="M17 21a3 3 0 0 1 3-3h15a2 2 0 0 1 2 2v18H17z" fill="#fff"/>
  <path d="M37 24h10l6 7v7H37z" fill="#fff"/>
  <!-- wheels -->
  <circle cx="26" cy="42" r="5.2" fill="#fff"/>
  <circle cx="47" cy="42" r="5.2" fill="#fff"/>
  <circle cx="26" cy="42" r="2.1" fill="#0a4c4d"/>
  <circle cx="47" cy="42" r="2.1" fill="#0a4c4d"/>
  <!-- live tracking dot -->
  <circle cx="49" cy="16" r="4.2" fill="#f59e0b" stroke="#ffffff" stroke-width="1.6"/>
</svg>
